
<svg viewBox="0 0 256 290" version="1.1" xmlns="http://www.w3.org/2000/svg" xmlns:xlink="http://www.w3.org/1999/xlink">
    <g id="Page-1" stroke="none" stroke-width="1" fill="none" fill-rule="evenodd">
        <g id="webpack">
            <polygon fill="#FFFFFF" points="128 0 256 72.4010336 256 217.236176 128 289.637209 0 217.236176 0 72.4010336"></polygon>
            <path d="M233.14522,212.24186 L132.233592,269.329199 L132.233592,224.876486 L195.109044,190.280103 L233.14522,212.24186 Z M240.057881,205.990698 L240.057881,86.6232558 L203.146253,107.956589 L203.146253,184.690439 L240.057881,205.990698 Z M22.4578811,212.24186 L123.369509,269.329199 L123.369509,224.876486 L60.4609819,190.280103 L22.4578811,212.24186 Z M15.5452196,205.990698 L15.5452196,86.6232558 L52.4568475,107.956589 L52.4568475,184.690439 L15.5452196,205.990698 Z M19.8780362,78.8837209 L123.369509,20.3410853 L123.369509,63.3054264 L57.0542636,99.7870801 L56.5250646,100.084755 L19.8780362,78.8837209 Z M235.725065,78.8837209 L132.233592,20.3410853 L132.233592,63.3054264 L198.548837,99.7540052 L199.078036,100.05168 L235.725065,78.8837209 Z"  fill="#8ED6FB" ></path>
            <path d="M123.369509,214.755556 L61.3209302,180.622222 L61.3209302,113.050129 L123.369509,148.870284 L123.369509,214.755556 Z M132.233592,214.755556 L194.282171,180.655297 L194.282171,113.050129 L132.233592,148.870284 L132.233592,214.755556 Z M65.521447,105.244444 L127.80155,71.0118863 L190.081654,105.244444 L127.80155,141.196899 L65.521447,105.244444 Z"  fill="#1C78C0" ></path>
        </g>
    </g>
</svg>